<?xml version="1.0" standalone="no"?>
<!DOCTYPE svg PUBLIC "-//W3C//DTD SVG 20010904//EN"
 "http://www.w3.org/TR/2001/REC-SVG-20010904/DTD/svg10.dtd">
<svg version="1.0" xmlns="http://www.w3.org/2000/svg"
 width="3000.000000pt" height="3000.000000pt" viewBox="0 0 3000.000000 3000.000000"
 preserveAspectRatio="xMidYMid meet">

<g transform="translate(0.000000,3000.000000) scale(0.100000,-0.100000)"
fill="#ffffff" stroke="none">
<path d="M15000 25669 c-1074 -53 -2109 -266 -3093 -636 -393 -147 -663 -266
-1042 -458 -2291 -1159 -4084 -3160 -4982 -5560 -313 -836 -514 -1709 -603
-2615 -59 -611 -57 -1393 6 -2005 51 -504 141 -1021 250 -1445 43 -170 72
-229 149 -306 104 -105 220 -150 369 -142 152 9 272 72 361 191 62 81 87 153
93 263 4 83 0 109 -41 280 -122 507 -194 968 -239 1534 -18 223 -18 1077 0
1305 63 807 209 1545 448 2262 769 2309 2409 4223 4579 5343 158 82 446 220
457 220 2 0 3 -49 3 -108 0 -108 1 -110 42 -194 69 -138 181 -229 325 -263
120 -28 203 -17 357 47 795 331 1629 524 2541 589 355 25 933 14 1335 -27 826
-83 1669 -307 2416 -642 209 -94 282 -108 419 -76 138 31 255 127 323 263 42
84 42 86 42 193 0 59 2 108 4 108 8 0 379 -194 491 -258 787 -444 1448 -948
2086 -1593 698 -706 1264 -1495 1705 -2379 759 -1520 1082 -3199 944 -4900
-41 -498 -128 -1027 -250 -1510 -18 -74 -36 -160 -40 -190 -22 -186 94 -391
269 -475 198 -95 421 -54 569 104 71 76 102 149 157 373 425 1714 393 3570
-91 5263 -601 2102 -1849 3948 -3584 5299 -539 420 -1076 759 -1695 1070
-1436 724 -3014 1093 -4635 1084 -159 0 -360 -4 -445 -9z"/>
<path d="M9390 15594 c-106 -15 -515 -96 -575 -115 -151 -46 -322 -151 -445
-271 -239 -232 -391 -540 -467 -948 -24 -134 -24 -543 1 -680 57 -316 271
-1476 291 -1585 14 -71 61 -328 105 -570 44 -242 89 -487 100 -545 11 -58 69
-375 130 -705 60 -330 119 -647 129 -705 33 -173 56 -302 146 -790 47 -256 94
-512 104 -570 34 -180 57 -306 176 -950 63 -344 128 -673 145 -732 138 -492
451 -923 827 -1138 195 -112 359 -160 573 -167 140 -5 153 -3 395 42 279 51
326 63 439 112 234 100 468 325 611 588 164 301 245 704 216 1082 -7 88 -36
276 -77 500 -36 197 -74 408 -85 468 -18 97 -177 963 -229 1245 -11 58 -67
364 -125 680 -58 316 -114 622 -125 680 -11 58 -67 364 -125 680 -58 316 -114
622 -125 680 -11 58 -76 413 -145 790 -302 1645 -286 1565 -351 1751 -155 451
-469 839 -837 1035 -166 88 -333 132 -517 138 -69 2 -141 2 -160 0z"/>
<path d="M21322 15590 c-456 -64 -880 -406 -1136 -915 -116 -231 -174 -434
-246 -850 -9 -51 -191 -1043 -235 -1280 -14 -71 -72 -389 -130 -705 -58 -316
-114 -622 -125 -680 -11 -58 -67 -364 -125 -680 -58 -316 -114 -622 -125 -680
-11 -58 -67 -364 -125 -680 -58 -316 -114 -622 -125 -680 -132 -713 -233
-1271 -246 -1358 -20 -142 -20 -434 1 -577 56 -395 209 -727 445 -966 109
-111 200 -179 315 -237 129 -65 178 -79 470 -134 403 -77 617 -60 885 68 120
57 173 90 282 176 272 215 486 529 614 901 61 177 43 87 309 1537 111 607 129
703 169 920 14 74 73 394 131 710 58 316 114 622 125 680 11 58 67 364 125
680 58 316 114 622 125 680 11 58 67 364 125 680 58 316 114 622 125 680 148
798 150 811 150 1047 0 611 -244 1141 -652 1414 -151 100 -267 146 -478 185
-74 14 -182 34 -240 45 -122 23 -317 32 -408 19z"/>
<path d="M7437 12397 c-506 -311 -886 -763 -1100 -1307 -81 -207 -132 -406
-162 -633 -20 -157 -20 -503 0 -662 117 -897 656 -1654 1460 -2050 194 -96
344 -151 536 -199 130 -33 305 -63 313 -55 2 2 -16 110 -40 239 -24 129 -53
287 -64 350 -63 342 -231 1256 -274 1490 -14 74 -73 394 -131 710 -58 316
-114 622 -125 680 -11 58 -67 364 -125 680 -165 898 -151 830 -163 830 -4 0
-60 -33 -125 -73z"/>
<path d="M23401 12418 c-6 -29 -38 -201 -71 -383 -33 -181 -69 -377 -80 -435
-22 -117 -90 -491 -175 -950 -30 -168 -64 -352 -75 -410 -11 -58 -67 -364
-125 -680 -58 -316 -114 -622 -125 -680 -11 -58 -67 -364 -125 -680 -58 -316
-111 -605 -118 -642 l-13 -68 27 0 c15 0 83 11 151 25 354 70 669 199 958 390
179 119 277 200 430 354 199 201 338 390 465 633 489 938 378 2073 -284 2895
-163 204 -371 396 -574 531 -99 66 -240 152 -251 152 -2 0 -9 -24 -15 -52z"/>
</g>
</svg>
